<?xml version="1.0" encoding="utf-8"?>
<!-- Generator: Adobe Illustrator 20.1.0, SVG Export Plug-In . SVG Version: 6.00 Build 0)  -->
<svg version="1.1" id="Layer_1" xmlns="http://www.w3.org/2000/svg" xmlns:xlink="http://www.w3.org/1999/xlink" height="100%"
	 viewBox="0 0 500.7 570" style="enable-background:new 0 0 500.7 570;" xml:space="preserve">
        <style type="text/css">
            .st0{fill:#4DD0E1;}
            .st1{fill:#00BCD4;}
            .st2{fill:#FCE4EC;}
            .st3{fill:#F8BBD0;}
            .st4{fill:#FF8A65;}
            .st5{fill:#8D6E63;}
            .st6{fill:#BCAAA4;}
            .st7{fill:#CFD8DC;}
            .st8{fill:#ECEFF1;}
            .st9{fill:#FFFFFF;}
            .large{fill:#FFF9C4; transform-origin: 49% 22%; animation: flame1 2s linear infinite}
            .small{fill:#FFAB91; transform-origin: 49% 22%; animation: flame2 2s linear infinite}
            .st12{fill:#455A64;}

            @keyframes flame1{
                0% 100%{
                    transform: rotate(0deg);
                    transition-timing-function: ease-in;
                }
                20%{
                    transform: rotate(5deg);
                    transition-timing-function: ease-out;
                }
                75%{
                    transform: rotate(-5deg);
                    transition-timing-function: ease-in;
                }
            }

            @keyframes flame2{
                0% 100%{
                    transform: rotate(0deg) scale(1);
                    transition-timing-function: ease-in-out;
                }
                20%{
                    transform: rotate(5deg) scale(.9);
                    transition-timing-function: ease-in-out;
                }
                75%{
                    transform: rotate(-5deg) scale(1.05);
                    transition-timing-function: ease-in-out;
                }
            }
        </style>
<rect x="223.6" y="166.6" class="st0" width="70.1" height="170.3"/>
<rect x="223.6" y="166.6" class="st1" width="9.3" height="170.3"/>
<g>
	<g>
		<path class="st2" d="M465.8,549.3H34.9c-3.4,0-6.1-2.7-6.1-6.1V343c0-3.4,2.7-6.1,6.1-6.1h430.9c3.4,0,6.1,2.7,6.1,6.1v200.2
			C471.9,546.6,469.1,549.3,465.8,549.3z"/>
		<path class="st3" d="M96.6,549.3H34.9c-3.4,0-6.1-2.7-6.1-6.1V343c0-3.4,2.7-6.1,6.1-6.1h61.8c3.4,0,6.1,2.7,6.1,6.1v200.2
			C102.7,546.6,100,549.3,96.6,549.3z"/>
		<path class="st3" d="M465.8,549.3H404c-3.4,0-6.1-2.7-6.1-6.1V343c0-3.4,2.7-6.1,6.1-6.1h61.8c3.4,0,6.1,2.7,6.1,6.1v200.2
			C471.9,546.6,469.1,549.3,465.8,549.3z"/>
		<g>
			<circle class="st4" cx="60.8" cy="420.8" r="7"/>
			<circle class="st4" cx="353" cy="510.3" r="5.4"/>
			<circle class="st4" cx="160.9" cy="435.3" r="7.4"/>
			<circle class="st4" cx="255.1" cy="468.4" r="14.8"/>
			<circle class="st4" cx="364.4" cy="441.2" r="6"/>
			<circle class="st4" cx="323.7" cy="383.1" r="4.4"/>
			<circle class="st4" cx="446.3" cy="375.7" r="4.2"/>
			<circle class="st4" cx="450.4" cy="431.9" r="4.1"/>
			<circle class="st4" cx="450.4" cy="534.2" r="4.1"/>
			<circle class="st4" cx="204.5" cy="530.2" r="7.6"/>
			<circle class="st4" cx="90.1" cy="499.5" r="10.8"/>
			<circle class="st4" cx="66.8" cy="536.2" r="6"/>
		</g>
		<path class="st5" d="M469,549.2H31.7c-3.3,0-6-2.7-6-6V541c0-3.3,2.7-6,6-6H469c3.3,0,6,2.7,6,6v2.3
			C474.9,546.6,472.2,549.2,469,549.2z"/>
		<path class="st5" d="M469,524.1H31.7c-3.3,0-6-2.7-6-6v-2.3c0-3.3,2.7-6,6-6H469c3.3,0,6,2.7,6,6v2.3
			C474.9,521.4,472.2,524.1,469,524.1z"/>
		<path class="st5" d="M26.6,342.5c3.2,19.1,16,79.2,46.4,54.9c35.9-28.7,41.1-39.3,77-18.3s46.2-17.7,68.6-13.2
			c22.7,4.6,31.5,140.4,73.8,18.3c13.9-40.2,32.3-2.1,64.6,5.6c25.5,6.1,28-7.2,43.5-24c13.5-25,43.1-7.4,51.6-8.2
			c17.2-1.7,21.6-12.5,22.6-17.8c0.7-2.4-2.3-2.9-2.3-2.9H30.1C30.1,336.9,25.8,337.7,26.6,342.5z"/>
		<g>
			<path class="st6" d="M226.9,355.1c-22.4-4.6-32.7,34.1-68.6,13.2c-27.3-15.9-36.8-13.6-55.6,1c15.8-11.3,25.9-11.9,50.8,2.6
				c35.9,20.9,46.2-17.7,68.6-13.2c17.9,3.7,27.2,89.2,51.2,64.7C252.8,432.9,243.6,358.5,226.9,355.1z"/>
			<path class="st6" d="M387.5,377.9c-5.2,3-11.8,3.7-22.3,1.2c-27.1-6.5-44.4-34.4-57.5-19.4c12.5-5.1,28.8,17.3,52.7,23
				C374.4,386.1,381.5,383.6,387.5,377.9z"/>
			<path class="st6" d="M460.3,346.9c-7.5,0.7-31.7-13.1-46.5,1.4c14.8-8.2,35,2.8,41.7,2.2c8.3-0.8,13.5-3.7,16.9-7.1
				C469.4,345.1,465.4,346.4,460.3,346.9z"/>
			<path class="st6" d="M76.6,390.2c0.6-0.5,1.2-0.9,1.7-1.4c-25.9,16.6-38.2-30-42.4-51.9h-5.4C34.1,357.5,47,413.9,76.6,390.2z"/>
		</g>
	</g>
	<g>
		<g>
			<ellipse class="st7" cx="82" cy="330.3" rx="23.5" ry="21.2"/>
			<path class="st8" d="M105.5,330.3c0,11.7-9.5,21.2-21.1,21.2s-21.1-9.5-21.1-21.2s19.3-21.2,19.3-21.2S105.5,318.6,105.5,330.3z"
				/>
			<ellipse class="st9" cx="92.1" cy="331.4" rx="8.2" ry="8"/>
		</g>
		<g>
			<ellipse class="st7" cx="169.2" cy="330.3" rx="23.5" ry="21.2"/>
			<path class="st8" d="M192.7,330.3c0,11.7-9.5,21.2-21.1,21.2c-11.7,0-21.1-9.5-21.1-21.2s19.3-21.2,19.3-21.2
				S192.7,318.6,192.7,330.3z"/>
			<ellipse class="st9" cx="179.3" cy="331.4" rx="8.2" ry="8"/>
		</g>
		<g>
			<ellipse class="st7" cx="256.4" cy="330.3" rx="23.5" ry="21.2"/>
			<path class="st8" d="M279.9,330.3c0,11.7-9.5,21.2-21.1,21.2s-21.1-9.5-21.1-21.2s19.3-21.2,19.3-21.2S279.9,318.6,279.9,330.3z"
				/>
			<ellipse class="st9" cx="266.6" cy="331.4" rx="8.2" ry="8"/>
		</g>
		<g>
			<ellipse class="st7" cx="343.7" cy="330.3" rx="23.5" ry="21.2"/>
			<path class="st8" d="M367.2,330.3c0,11.7-9.5,21.2-21.1,21.2c-11.7,0-21.1-9.5-21.1-21.2s19.3-21.2,19.3-21.2
				S367.2,318.6,367.2,330.3z"/>
			<ellipse class="st9" cx="353.8" cy="331.4" rx="8.2" ry="8"/>
		</g>
		<g>
			<ellipse class="st7" cx="430.9" cy="330.3" rx="23.5" ry="21.2"/>
			<path class="st8" d="M454.4,330.3c0,11.7-9.5,21.2-21.1,21.2c-11.7,0-21.1-9.5-21.1-21.2s19.3-21.2,19.3-21.2
				S454.4,318.6,454.4,330.3z"/>
			<ellipse class="st9" cx="441" cy="331.4" rx="8.2" ry="8"/>
		</g>
	</g>
</g>
<path class="large" d="M296.7,117.6c0,19.9-16.1,36-36,36s-36-16.1-36-36s16.1-79.9,36-79.9S296.7,97.8,296.7,117.6z"/>
<path class="small" d="M282.9,123.5c0,12.8-10.4,23.2-23.2,23.2c-12.8,0-23.2-10.4-23.2-23.2s10.4-41.9,23.2-41.9
	C272.5,81.6,282.9,110.7,282.9,123.5z"/>
<path class="st12" d="M264.1,166.6h-10.1v-27.9c0-2.5,2.1-4.6,4.6-4.6h0.9c2.5,0,4.6,2.1,4.6,4.6V166.6z"/>
</svg>
